<svg width="909" height="559" viewBox="0 0 909 559" fill="none" xmlns="http://www.w3.org/2000/svg">
<path fill-rule="evenodd" clip-rule="evenodd" d="M254 200C254 89.5431 343.543 0 454 0C564.457 0 654 89.5431 654 200C654 236.429 644.261 270.583 627.244 300H594.476L595.829 298.655L511.535 214.887L479.203 247.017L532.519 300H382.009L524.237 158.659C527.06 159.934 530.011 160.826 533.09 161.336C536.169 161.846 539.248 162.101 542.328 162.101C557.467 162.101 570.233 156.937 580.626 146.61C591.018 136.282 596.214 123.596 596.214 108.551C596.214 104.726 595.894 101.092 595.252 97.6492C594.611 94.2067 593.392 90.7004 591.595 87.1304L553.49 124.998L525.777 97.458L563.882 59.5901C560.29 58.06 556.762 56.9125 553.297 56.1475C549.833 55.3825 546.177 55 542.328 55C527.188 55 514.422 60.1638 504.03 70.4914C493.637 80.819 488.441 93.5054 488.441 108.551C488.441 111.611 488.762 114.671 489.403 117.731C490.045 120.791 490.879 123.723 491.905 126.528L457.264 160.954L431.09 134.943L441.868 124.233L422.622 105.108L458.034 69.9177C452.901 64.8176 447.385 61.1201 441.483 58.825C435.581 56.53 429.551 55.3825 423.392 55.3825C417.234 55.3825 411.203 56.53 405.302 58.825C399.4 61.1201 393.883 64.8176 388.751 69.9177L334.094 124.233L353.34 143.359H321.777L311 154.069L357.573 200.352L368.351 189.642V158.276L387.981 177.784L398.758 167.074L424.932 193.084L318.698 298.655L320.051 300H280.756C263.739 270.583 254 236.429 254 200Z" fill="#2C2F42"/>
<path d="M11.38 327H40.72C50.92 327 58.36 329.4 63.04 334.2C67.72 338.88 70.06 346.14 70.06 355.98V363.72C70.06 376.8 65.74 385.08 57.1 388.56V388.92C61.9 390.36 65.26 393.3 67.18 397.74C69.22 402.18 70.24 408.12 70.24 415.56V437.7C70.24 441.3 70.36 444.24 70.6 446.52C70.84 448.68 71.44 450.84 72.4 453H52.24C51.52 450.96 51.04 449.04 50.8 447.24C50.56 445.44 50.44 442.2 50.44 437.52V414.48C50.44 408.72 49.48 404.7 47.56 402.42C45.76 400.14 42.58 399 38.02 399H31.18V453H11.38V327ZM38.38 381C42.34 381 45.28 379.98 47.2 377.94C49.24 375.9 50.26 372.48 50.26 367.68V357.96C50.26 353.4 49.42 350.1 47.74 348.06C46.18 346.02 43.66 345 40.18 345H31.18V381H38.38ZM104.678 327H131.498L152.018 453H132.218L128.618 427.98V428.34H106.118L102.518 453H84.1577L104.678 327ZM126.278 411.24L117.458 348.96H117.098L108.458 411.24H126.278ZM174.242 345H153.542V327H214.742V345H194.042V453H174.242V345ZM229.728 327H283.728V345H249.528V378.3H276.708V396.3H249.528V435H283.728V453H229.728V327ZM334.747 327H363.007L375.607 417.18H375.967L388.567 327H416.827V453H398.107V357.6H397.747L383.347 453H366.787L352.387 357.6H352.027V453H334.747V327ZM455.183 399.36L431.243 327H452.303L465.803 373.26H466.163L479.663 327H498.923L474.983 399.36V453H455.183V399.36ZM575.371 454.8C565.891 454.8 558.631 452.1 553.591 446.7C548.671 441.3 546.211 433.68 546.211 423.84V356.16C546.211 346.32 548.671 338.7 553.591 333.3C558.631 327.9 565.891 325.2 575.371 325.2C584.851 325.2 592.051 327.9 596.971 333.3C602.011 338.7 604.531 346.32 604.531 356.16V369.48H585.811V354.9C585.811 347.1 582.511 343.2 575.911 343.2C569.311 343.2 566.011 347.1 566.011 354.9V425.28C566.011 432.96 569.311 436.8 575.911 436.8C582.511 436.8 585.811 432.96 585.811 425.28V406.02H604.531V423.84C604.531 433.68 602.011 441.3 596.971 446.7C592.051 452.1 584.851 454.8 575.371 454.8ZM621.777 327H651.117C661.317 327 668.757 329.4 673.437 334.2C678.117 338.88 680.457 346.14 680.457 355.98V363.72C680.457 376.8 676.137 385.08 667.497 388.56V388.92C672.297 390.36 675.657 393.3 677.577 397.74C679.617 402.18 680.637 408.12 680.637 415.56V437.7C680.637 441.3 680.757 444.24 680.997 446.52C681.237 448.68 681.837 450.84 682.797 453H662.637C661.917 450.96 661.437 449.04 661.197 447.24C660.957 445.44 660.837 442.2 660.837 437.52V414.48C660.837 408.72 659.877 404.7 657.957 402.42C656.157 400.14 652.977 399 648.417 399H641.577V453H621.777V327ZM648.777 381C652.737 381 655.677 379.98 657.597 377.94C659.637 375.9 660.657 372.48 660.657 367.68V357.96C660.657 353.4 659.817 350.1 658.137 348.06C656.577 346.02 654.057 345 650.577 345H641.577V381H648.777ZM715.075 327H741.895L762.415 453H742.615L739.015 427.98V428.34H716.515L712.915 453H694.555L715.075 327ZM736.675 411.24L727.855 348.96H727.495L718.855 411.24H736.675ZM777.421 327H829.801V345H797.221V380.1H822.781V398.1H797.221V453H777.421V327ZM861.933 345H841.233V327H902.433V345H881.733V453H861.933V345Z" fill="#2C2F42"/>
<path d="M8.52 523.12L0.54 499H7.56L12.06 514.42H12.18L16.68 499H23.1L15.12 523.12V541H8.52V523.12ZM36.3586 541.6C33.1186 541.6 30.6386 540.68 28.9186 538.84C27.1986 537 26.3386 534.4 26.3386 531.04V508.96C26.3386 505.6 27.1986 503 28.9186 501.16C30.6386 499.32 33.1186 498.4 36.3586 498.4C39.5986 498.4 42.0786 499.32 43.7986 501.16C45.5186 503 46.3786 505.6 46.3786 508.96V531.04C46.3786 534.4 45.5186 537 43.7986 538.84C42.0786 540.68 39.5986 541.6 36.3586 541.6ZM36.3586 535.6C38.6386 535.6 39.7786 534.22 39.7786 531.46V508.54C39.7786 505.78 38.6386 504.4 36.3586 504.4C34.0786 504.4 32.9386 505.78 32.9386 508.54V531.46C32.9386 534.22 34.0786 535.6 36.3586 535.6ZM62.242 541.6C59.042 541.6 56.602 540.7 54.922 538.9C53.242 537.06 52.402 534.44 52.402 531.04V499H59.002V531.52C59.002 532.96 59.282 534 59.842 534.64C60.442 535.28 61.282 535.6 62.362 535.6C63.442 535.6 64.262 535.28 64.822 534.64C65.422 534 65.722 532.96 65.722 531.52V499H72.082V531.04C72.082 534.44 71.242 537.06 69.562 538.9C67.882 540.7 65.442 541.6 62.242 541.6ZM78.5827 499H88.3627C91.7627 499 94.2427 499.8 95.8027 501.4C97.3627 502.96 98.1427 505.38 98.1427 508.66V511.24C98.1427 515.6 96.7027 518.36 93.8227 519.52V519.64C95.4227 520.12 96.5427 521.1 97.1827 522.58C97.8627 524.06 98.2027 526.04 98.2027 528.52V535.9C98.2027 537.1 98.2427 538.08 98.3227 538.84C98.4027 539.56 98.6027 540.28 98.9227 541H92.2027C91.9627 540.32 91.8027 539.68 91.7227 539.08C91.6427 538.48 91.6027 537.4 91.6027 535.84V528.16C91.6027 526.24 91.2827 524.9 90.6427 524.14C90.0427 523.38 88.9827 523 87.4627 523H85.1827V541H78.5827V499ZM87.5827 517C88.9027 517 89.8827 516.66 90.5227 515.98C91.2027 515.3 91.5427 514.16 91.5427 512.56V509.32C91.5427 507.8 91.2627 506.7 90.7027 506.02C90.1827 505.34 89.3427 505 88.1827 505H85.1827V517H87.5827ZM114.251 499H120.911L125.231 531.58H125.351L129.671 499H135.731L129.371 541H120.611L114.251 499ZM150.124 541.6C146.884 541.6 144.404 540.68 142.684 538.84C140.964 537 140.104 534.4 140.104 531.04V508.96C140.104 505.6 140.964 503 142.684 501.16C144.404 499.32 146.884 498.4 150.124 498.4C153.364 498.4 155.844 499.32 157.564 501.16C159.284 503 160.144 505.6 160.144 508.96V531.04C160.144 534.4 159.284 537 157.564 538.84C155.844 540.68 153.364 541.6 150.124 541.6ZM150.124 535.6C152.404 535.6 153.544 534.22 153.544 531.46V508.54C153.544 505.78 152.404 504.4 150.124 504.4C147.844 504.4 146.704 505.78 146.704 508.54V531.46C146.704 534.22 147.844 535.6 150.124 535.6ZM166.408 499H173.008V541H166.408V499ZM189.051 541.6C185.891 541.6 183.471 540.7 181.791 538.9C180.151 537.1 179.331 534.56 179.331 531.28V508.72C179.331 505.44 180.151 502.9 181.791 501.1C183.471 499.3 185.891 498.4 189.051 498.4C192.211 498.4 194.611 499.3 196.251 501.1C197.931 502.9 198.771 505.44 198.771 508.72V513.16H192.531V508.3C192.531 505.7 191.431 504.4 189.231 504.4C187.031 504.4 185.931 505.7 185.931 508.3V531.76C185.931 534.32 187.031 535.6 189.231 535.6C191.431 535.6 192.531 534.32 192.531 531.76V525.34H198.771V531.28C198.771 534.56 197.931 537.1 196.251 538.9C194.611 540.7 192.211 541.6 189.051 541.6ZM204.519 499H222.519V505H211.119V516.1H220.179V522.1H211.119V535H222.519V541H204.519V499ZM239.526 499H248.946L253.146 529.06H253.266L257.466 499H266.886V541H260.646V509.2H260.526L255.726 541H250.206L245.406 509.2H245.286V541H239.526V499ZM278.711 499H287.651L294.491 541H287.891L286.691 532.66V532.78H279.191L277.991 541H271.871L278.711 499ZM285.911 527.08L282.971 506.32H282.851L279.971 527.08H285.911ZM301.899 505H294.999V499H315.399V505H308.499V541H301.899V505ZM326.14 505H319.24V499H339.64V505H332.74V541H326.14V505ZM344.636 499H362.636V505H351.236V516.1H360.296V522.1H351.236V535H362.636V541H344.636V499ZM368.233 499H378.013C381.413 499 383.893 499.8 385.453 501.4C387.013 502.96 387.793 505.38 387.793 508.66V511.24C387.793 515.6 386.353 518.36 383.473 519.52V519.64C385.073 520.12 386.193 521.1 386.833 522.58C387.513 524.06 387.853 526.04 387.853 528.52V535.9C387.853 537.1 387.893 538.08 387.973 538.84C388.053 539.56 388.253 540.28 388.573 541H381.853C381.613 540.32 381.453 539.68 381.373 539.08C381.293 538.48 381.253 537.4 381.253 535.84V528.16C381.253 526.24 380.933 524.9 380.293 524.14C379.693 523.38 378.633 523 377.113 523H374.833V541H368.233V499ZM377.233 517C378.553 517 379.533 516.66 380.173 515.98C380.853 515.3 381.193 514.16 381.193 512.56V509.32C381.193 507.8 380.913 506.7 380.353 506.02C379.833 505.34 378.993 505 377.833 505H374.833V517H377.233ZM402.812 541.6C399.612 541.6 397.192 540.7 395.552 538.9C393.912 537.06 393.092 534.44 393.092 531.04V528.64H399.332V531.52C399.332 534.24 400.472 535.6 402.752 535.6C403.872 535.6 404.712 535.28 405.272 534.64C405.872 533.96 406.172 532.88 406.172 531.4C406.172 529.64 405.772 528.1 404.972 526.78C404.172 525.42 402.692 523.8 400.532 521.92C397.812 519.52 395.912 517.36 394.832 515.44C393.752 513.48 393.212 511.28 393.212 508.84C393.212 505.52 394.052 502.96 395.732 501.16C397.412 499.32 399.852 498.4 403.052 498.4C406.212 498.4 408.592 499.32 410.192 501.16C411.832 502.96 412.652 505.56 412.652 508.96V510.7H406.412V508.54C406.412 507.1 406.132 506.06 405.572 505.42C405.012 504.74 404.192 504.4 403.112 504.4C400.912 504.4 399.812 505.74 399.812 508.42C399.812 509.94 400.212 511.36 401.012 512.68C401.852 514 403.352 515.6 405.512 517.48C408.272 519.88 410.172 522.06 411.212 524.02C412.252 525.98 412.772 528.28 412.772 530.92C412.772 534.36 411.912 537 410.192 538.84C408.512 540.68 406.052 541.6 402.812 541.6ZM427.305 517.3H445.305V522.7H427.305V517.3ZM460.963 499H470.743C474.143 499 476.623 499.8 478.183 501.4C479.743 502.96 480.523 505.38 480.523 508.66V511.24C480.523 515.6 479.083 518.36 476.203 519.52V519.64C477.803 520.12 478.923 521.1 479.563 522.58C480.243 524.06 480.583 526.04 480.583 528.52V535.9C480.583 537.1 480.623 538.08 480.703 538.84C480.783 539.56 480.983 540.28 481.303 541H474.583C474.343 540.32 474.183 539.68 474.103 539.08C474.023 538.48 473.983 537.4 473.983 535.84V528.16C473.983 526.24 473.663 524.9 473.023 524.14C472.423 523.38 471.363 523 469.843 523H467.563V541H460.963V499ZM469.963 517C471.283 517 472.263 516.66 472.903 515.98C473.583 515.3 473.923 514.16 473.923 512.56V509.32C473.923 507.8 473.643 506.7 473.083 506.02C472.563 505.34 471.723 505 470.563 505H467.563V517H469.963ZM492.062 499H501.002L507.842 541H501.242L500.042 532.66V532.78H492.542L491.342 541H485.222L492.062 499ZM499.262 527.08L496.322 506.32H496.202L493.322 527.08H499.262ZM515.25 505H508.35V499H528.75V505H521.85V541H515.25V505ZM533.746 499H551.746V505H540.346V516.1H549.406V522.1H540.346V535H551.746V541H533.746V499ZM568.752 499H578.172L582.372 529.06H582.492L586.692 499H596.112V541H589.872V509.2H589.752L584.952 541H579.432L574.632 509.2H574.512V541H568.752V499ZM608.897 523.12L600.917 499H607.937L612.437 514.42H612.557L617.057 499H623.477L615.497 523.12V541H608.897V523.12ZM648.96 541.6C645.8 541.6 643.38 540.7 641.7 538.9C640.06 537.1 639.24 534.56 639.24 531.28V508.72C639.24 505.44 640.06 502.9 641.7 501.1C643.38 499.3 645.8 498.4 648.96 498.4C652.12 498.4 654.52 499.3 656.16 501.1C657.84 502.9 658.68 505.44 658.68 508.72V513.16H652.44V508.3C652.44 505.7 651.34 504.4 649.14 504.4C646.94 504.4 645.84 505.7 645.84 508.3V531.76C645.84 534.32 646.94 535.6 649.14 535.6C651.34 535.6 652.44 534.32 652.44 531.76V525.34H658.68V531.28C658.68 534.56 657.84 537.1 656.16 538.9C654.52 540.7 652.12 541.6 648.96 541.6ZM664.429 499H674.209C677.609 499 680.089 499.8 681.649 501.4C683.209 502.96 683.989 505.38 683.989 508.66V511.24C683.989 515.6 682.549 518.36 679.669 519.52V519.64C681.269 520.12 682.389 521.1 683.029 522.58C683.709 524.06 684.049 526.04 684.049 528.52V535.9C684.049 537.1 684.089 538.08 684.169 538.84C684.249 539.56 684.449 540.28 684.769 541H678.049C677.809 540.32 677.649 539.68 677.569 539.08C677.489 538.48 677.449 537.4 677.449 535.84V528.16C677.449 526.24 677.129 524.9 676.489 524.14C675.889 523.38 674.829 523 673.309 523H671.029V541H664.429V499ZM673.429 517C674.749 517 675.729 516.66 676.369 515.98C677.049 515.3 677.389 514.16 677.389 512.56V509.32C677.389 507.8 677.109 506.7 676.549 506.02C676.029 505.34 675.189 505 674.029 505H671.029V517H673.429ZM695.528 499H704.468L711.308 541H704.708L703.508 532.66V532.78H696.008L694.808 541H688.688L695.528 499ZM702.728 527.08L699.788 506.32H699.668L696.788 527.08H702.728ZM716.31 499H733.77V505H722.91V516.7H731.43V522.7H722.91V541H716.31V499ZM744.481 505H737.581V499H757.981V505H751.081V541H744.481V505ZM779.546 505H772.646V499H793.046V505H786.146V541H779.546V505ZM807.347 541.6C804.107 541.6 801.627 540.68 799.907 538.84C798.187 537 797.327 534.4 797.327 531.04V508.96C797.327 505.6 798.187 503 799.907 501.16C801.627 499.32 804.107 498.4 807.347 498.4C810.587 498.4 813.067 499.32 814.787 501.16C816.507 503 817.367 505.6 817.367 508.96V531.04C817.367 534.4 816.507 537 814.787 538.84C813.067 540.68 810.587 541.6 807.347 541.6ZM807.347 535.6C809.627 535.6 810.767 534.22 810.767 531.46V508.54C810.767 505.78 809.627 504.4 807.347 504.4C805.067 504.4 803.927 505.78 803.927 508.54V531.46C803.927 534.22 805.067 535.6 807.347 535.6ZM823.63 499H833.71C836.99 499 839.45 499.88 841.09 501.64C842.73 503.4 843.55 505.98 843.55 509.38V530.62C843.55 534.02 842.73 536.6 841.09 538.36C839.45 540.12 836.99 541 833.71 541H823.63V499ZM833.59 535C834.67 535 835.49 534.68 836.05 534.04C836.65 533.4 836.95 532.36 836.95 530.92V509.08C836.95 507.64 836.65 506.6 836.05 505.96C835.49 505.32 834.67 505 833.59 505H830.23V535H833.59ZM854.788 499H863.728L870.568 541H863.968L862.768 532.66V532.78H855.268L854.068 541H847.948L854.788 499ZM861.988 527.08L859.048 506.32H858.928L856.048 527.08H861.988ZM878.876 523.12L870.896 499H877.916L882.416 514.42H882.536L887.036 499H893.456L885.476 523.12V541H878.876V523.12ZM898.77 516.52V499H905.37V516.52L904.53 529.9H899.61L898.77 516.52ZM898.89 534.64H905.25V541H898.89V534.64Z" fill="#2C2F42"/>
</svg>
